<svg xmlns="http://www.w3.org/2000/svg" width="48" height="48" viewBox="0 0 48 48" fill="none">
  <path d="M36 18C35.0059 18.0036 34.0199 18.1747 33.09 18.504C32.3108 15.8966 30.6872 13.632 28.4488 12.0295C26.2103 10.427 23.4834 9.5815 20.7 9.624C15.4066 9.624 10.8528 13.0938 9.3 18C6.8784 18.3539 4.67225 19.6066 3.08676 21.5183C1.50127 23.43 0.639144 25.8537 0.673517 28.3509C0.70789 30.8482 1.63598 33.2485 3.26782 35.1167C4.89966 36.9849 7.13306 38.181 9.558 38.4732L9.6 38.4768H36C39.1826 38.4768 42.2348 37.2161 44.4853 34.9657C46.7357 32.7152 47.9964 29.663 47.9964 26.4804C47.9964 23.2978 46.7357 20.2456 44.4853 17.9951C42.2348 15.7447 39.1826 14.484 36 14.484V18ZM36 18V14.484C36 14.484 35.988 14.484 35.982 14.484C35.988 14.484 35.9964 14.484 36 14.484ZM13.2 30C13.6774 30 14.1352 29.8103 14.4728 29.4727C14.8103 29.1352 15 28.6774 15 28.2V25.8C15 25.3226 14.8103 24.8648 14.4728 24.5272C14.1352 24.1897 13.6774 24 13.2 24C12.7226 24 12.2648 24.1897 11.9272 24.5272C11.5897 24.8648 11.4 25.3226 11.4 25.8V28.2C11.4 28.6774 11.5897 29.1352 11.9272 29.4727C12.2648 29.8103 12.7226 30 13.2 30ZM19.2 30C19.6774 30 20.1352 29.8103 20.4728 29.4727C20.8103 29.1352 21 28.6774 21 28.2V25.8C21 25.3226 20.8103 24.8648 20.4728 24.5272C20.1352 24.1897 19.6774 24 19.2 24C18.7226 24 18.2648 24.1897 17.9272 24.5272C17.5897 24.8648 17.4 25.3226 17.4 25.8V28.2C17.4 28.6774 17.5897 29.1352 17.9272 29.4727C18.2648 29.8103 18.7226 30 19.2 30ZM25.2 30C25.6774 30 26.1352 29.8103 26.4728 29.4727C26.8103 29.1352 27 28.6774 27 28.2V25.8C27 25.3226 26.8103 24.8648 26.4728 24.5272C26.1352 24.1897 25.6774 24 25.2 24C24.7226 24 24.2648 24.1897 23.9272 24.5272C23.5897 24.8648 23.4 25.3226 23.4 25.8V28.2C23.4 28.6774 23.5897 29.1352 23.9272 29.4727C24.2648 29.8103 24.7226 30 25.2 30Z" fill="#281C4F"/>
</svg> 