<svg xmlns="http://www.w3.org/2000/svg" width="48" height="48" viewBox="0 0 48 48" fill="none">
  <path d="M24 4C19.8397 4.00258 15.7519 5.2751 12.2962 7.65402C8.8406 10.0329 6.1688 13.4183 4.58726 17.3618C3.00573 21.3054 2.58049 25.6262 3.36002 29.7944C4.13956 33.9626 6.08916 37.8047 8.97455 40.8541C11.8599 43.9035 15.5668 46.0225 19.6261 46.9515C23.6854 47.8805 27.9255 47.5801 31.8206 46.0883C35.7158 44.5965 39.0836 42.8047 41.7003 39.2848C44.3171 35.7649 46.0709 31.3859 46.0709 26.5C46.0642 20.0374 43.5262 13.841 38.9175 9.2322C34.3087 4.62342 28.1123 2.08538 24 2.08538V4ZM24 44.7333C20.3359 44.7309 16.7442 43.6157 13.6688 41.5228C10.5934 39.4299 8.15682 36.4509 6.65922 32.9731C5.16162 29.4954 4.66868 25.6579 5.24281 21.9205C5.81694 18.1831 7.4334 14.7225 9.9054 11.9371C12.3774 9.15181 15.5922 7.16759 19.1585 6.22804C22.7248 5.28849 26.4818 5.43626 29.971 6.65217C33.4603 7.86807 36.5312 10.1055 38.8279 13.1054C41.1246 16.1053 42.5518 19.7385 42.9358 23.5333H24C23.5817 23.5333 23.1406 23.6546 22.7037 23.8784C22.2669 24.1021 21.8484 24.4221 21.4765 24.8191C21.1046 25.216 20.788 25.6825 20.5453 26.1915C20.3026 26.7004 20.1387 27.2426 20.0624 27.8004C19.986 28.3583 19.9983 28.9237 20.0987 29.4762C20.199 30.0286 20.3857 30.5593 20.648 31.0486C20.9104 31.5378 21.2445 31.9776 21.6352 32.3424C22.0258 32.7073 22.4675 32.991 22.94 33.1806V44.7333H24ZM24 33.1806C24.9239 33.1806 25.8302 32.9233 26.6149 32.4367C27.3995 31.9502 28.0322 31.2553 28.4361 30.4308C28.84 29.6064 28.9984 28.6892 28.8938 27.7821C28.7893 26.875 28.426 26.0173 27.8431 25.3065C27.2603 24.5956 26.4809 24.0621 25.599 23.7663C24.7171 23.4704 23.7671 23.4249 22.8622 23.6349C21.9573 23.8449 21.1336 24.3011 20.4913 24.9497C19.849 25.5983 19.4145 26.4121 19.2402 27.3C18.9931 28.5372 19.2073 29.823 19.8372 30.9075C20.4671 31.992 21.4667 32.7999 22.64 33.18L24 33.1806ZM6.66667 26.3333H17.6C17.6454 25.9555 17.7241 25.5825 17.8352 25.22C17.9497 24.828 18.0997 24.4491 18.2832 24.088C18.4614 23.739 18.6711 23.407 18.9104 23.096C19.15 22.7793 19.4196 22.4885 19.7152 22.228C20.0139 21.9634 20.3378 21.7325 20.682 21.54C21.0241 21.348 21.3837 21.1933 21.7552 21.078C22.4993 20.8553 23.284 20.7825 24.0574 20.8644C24.8309 20.9463 25.5755 21.1812 26.2474 21.5543C26.9193 21.9274 27.5039 22.4306 27.9665 23.0323C28.4292 23.634 28.7602 24.3217 28.9396 25.052L29.3333 26.3333H41.3333C41.3333 26.0544 41.3248 25.7768 41.308 25.5H24C23.6464 25.5 23.3072 25.3507 23.0572 25.0851C22.8071 24.8194 22.6667 24.4594 22.6667 24.0833C22.6667 23.7072 22.8071 23.3473 23.0572 23.0816C23.3072 22.816 23.6464 22.6667 24 22.6667H40.932C40.684 19.6895 39.6453 16.8472 37.9266 14.4305C36.208 12.0139 33.8767 10.1059 31.1804 8.927C28.4841 7.7481 25.5259 7.34324 22.6152 7.75639C19.7045 8.16954 16.9634 9.38571 14.6908 11.2833C12.4182 13.1809 10.7018 15.6846 9.72793 18.5232C8.75404 21.3618 8.55675 24.4264 9.15945 27.3772C9.76214 30.328 11.1418 33.0592 13.1394 35.2988C15.137 37.5383 17.674 39.2019 20.5333 40.1L18.6667 44.7333C15.2253 43.7213 12.1002 41.8382 9.57748 39.2632C7.05474 36.6882 5.20765 33.5018 4.17183 30.0037C3.13602 26.5056 2.94566 22.8042 3.62109 19.2126C4.29651 15.621 5.81578 12.2642 8.04228 9.45201C10.2688 6.63979 13.1345 4.46196 16.3982 3.11919C19.6619 1.77642 23.2193 1.31214 26.7149 1.77114C30.2104 2.23013 33.5159 3.59776 36.289 5.74292C39.062 7.88808 41.2123 10.7346 42.5067 13.984H24C23.6464 13.984 23.3072 14.1332 23.0572 14.3989C22.8071 14.6646 22.6667 15.0245 22.6667 15.4007C22.6667 15.7768 22.8071 16.1367 23.0572 16.4024C23.3072 16.668 23.6464 16.8173 24 16.8173H43.6187C43.8633 18.0204 44.0015 19.2448 44.0315 20.4756C44.0612 21.6921 43.9857 22.9091 43.8059 24.1146C43.6602 25.0561 43.4516 25.987 43.1815 26.9023C41.8815 30.849 39.2945 34.2617 35.8288 36.6402C32.3632 39.0187 28.1848 40.241 24 40.1V33.1806C24.6303 33.1801 25.2543 33.0551 25.8354 32.8133C26.4165 32.5714 26.9427 32.2179 27.3818 31.7728C27.8208 31.3278 28.1641 30.8008 28.3921 30.2238C28.6201 29.6467 28.7283 29.0312 28.7107 28.4151C28.6932 27.799 28.5502 27.1908 28.2904 26.628C28.0306 26.0653 27.6594 25.5592 27.1978 25.1407C26.7363 24.7222 26.1933 24.4001 25.6011 24.1948C25.0088 23.9895 24.3813 23.9052 23.7593 23.9467C22.5481 24.0294 21.4109 24.5229 20.5545 25.3311C19.6981 26.1393 19.184 27.2078 19.1173 28.3331C19.1013 28.6605 19.1187 28.989 19.1693 29.3121C19.2204 29.6266 19.3034 29.9343 19.4167 30.2307C19.5232 30.5213 19.6584 30.7994 19.8204 31.0606C19.9889 31.3329 20.1867 31.586 20.4107 31.8147C20.6336 32.0428 20.8807 32.2465 21.1477 32.4227C21.3918 32.5847 21.6516 32.7229 21.924 32.8356C22.2065 32.951 22.5005 33.0356 22.8004 33.0883C23.1984 33.154 23.6007 33.1781 24 33.1605V44.7333H26.3328C29.9978 44.7357 33.5903 43.6208 36.6667 41.5278C39.743 39.4348 42.1805 36.4555 43.6788 32.9772C45.177 29.499 45.6703 25.6607 45.0963 21.9227C44.5223 18.1847 42.9057 14.7235 40.4335 11.9378C37.9612 9.15214 34.746 7.16772 31.1791 6.22813C27.6123 5.28854 23.8548 5.43642 20.3652 6.65255C16.8755 7.86869 13.8044 10.1064 11.5078 13.1067C9.21128 16.107 7.78421 19.7407 7.40043 23.5358H9.33333C9.68696 23.5358 10.0261 23.6851 10.2761 23.9507C10.5262 24.2164 10.6667 24.5763 10.6667 24.9524C10.6667 25.3286 10.5262 25.6885 10.2761 25.9541C10.0261 26.2198 9.68696 26.3691 9.33333 26.3691L6.66667 26.3333Z" fill="#281C4F"/>
</svg> 