<svg width="149" height="44" viewBox="0 0 149 44" fill="none" xmlns="http://www.w3.org/2000/svg">
<path d="M0.230469 13.194H4.73767V28.9694H0.230469V13.194ZM12.6254 23.3353H8.11807L5.86447 19.9549H12.6254V13.194H17.1326V28.9694H12.6254V23.3353ZM31.7812 17.7013C31.7812 16.9501 31.4056 16.5744 30.6544 16.5744V13.194C34.4104 13.194 36.2884 14.6964 36.2884 17.7013V24.4621C36.2884 27.467 34.4104 28.9694 30.6544 28.9694H26.1471V25.5889H30.6544C31.4056 25.5889 31.7812 25.2133 31.7812 24.4621V17.7013ZM23.8935 24.4621C23.8935 25.2133 24.2691 25.5889 25.0203 25.5889V28.9694C21.2643 28.9694 19.3863 27.467 19.3863 24.4621V17.7013C19.3863 14.6964 21.2643 13.194 25.0203 13.194H29.5276V16.5744H25.0203C24.2691 16.5744 23.8935 16.9501 23.8935 17.7013V24.4621ZM44.1761 13.194H55.4445V16.5744H44.1761C43.4249 16.5744 43.0493 16.9501 43.0493 17.7013V18.8281C43.0493 19.5793 43.4249 19.9549 44.1761 19.9549H46.4295V23.3353H44.1761C40.4201 23.3353 38.542 21.8329 38.542 18.8281V17.7013C38.542 14.6964 40.4201 13.194 44.1761 13.194ZM49.8105 28.9694H38.542V25.5889H49.8105C50.5615 25.5889 50.9365 25.2133 50.9365 24.4621C50.9365 23.7109 50.5615 23.3353 49.8105 23.3353H47.5565V19.9549H49.8105C53.5665 19.9549 55.4445 21.4573 55.4445 24.4621C55.4445 27.467 53.5665 28.9694 49.8105 28.9694ZM73.4735 16.5744H57.6975V13.194H73.4735V16.5744ZM63.3315 17.7013H67.8395V28.9694H63.3315V17.7013ZM75.4565 13.194H79.9635V28.9694H75.4565V13.194ZM86.7245 19.9323V28.9694H82.2175V13.194H88.0765L94.6915 26.3101L92.3585 30.8061L86.7245 19.9323ZM102.499 13.194V28.9694H97.9925V19.9323L95.3785 24.9805L93.0235 20.3155L96.6405 13.194H102.499Z" fill="white"/>
<path d="M125.74 1.76465C128.217 0.311849 131.285 0.311848 133.761 1.76465L145.087 8.40903C147.512 9.83187 149.002 12.4332 149.002 15.2449V28.7551C149.002 31.5669 147.512 34.1682 145.087 35.591L133.761 42.2354C131.285 43.6882 128.217 43.6882 125.74 42.2354L114.415 35.591C111.99 34.1682 110.5 31.5669 110.5 28.7551V15.2449C110.5 12.4332 111.99 9.83187 114.415 8.40904L125.74 1.76465Z" fill="url(#paint0_linear_1035_6270)"/>
<path d="M131.683 8.67505H130.919V18.6243H127.444V12.6885H120.5V27.773C120.5 31.3271 123.272 34.2184 126.68 34.2184H127.444V24.8618H130.919V31.0368H137.863V15.1203C137.863 11.5663 135.091 8.67505 131.683 8.67505ZM125.916 32.5588C123.713 32.1777 122.029 30.1764 122.029 27.773V24.8618H125.916V32.5588ZM136.334 29.4425H132.447V23.2676H122.029V14.2828H125.916V20.2185H136.334V29.4425ZM136.334 18.6243H132.447V10.3347C134.65 10.7156 136.334 12.7164 136.334 15.1203V18.6243Z" fill="white"/>
<defs>
<linearGradient id="paint0_linear_1035_6270" x1="107.522" y1="2.71737" x2="154.636" y2="7.14403" gradientUnits="userSpaceOnUse">
<stop stop-color="#265597"/>
<stop offset="1" stop-color="#092346"/>
</linearGradient>
</defs>
</svg>
